<svg width="507" height="113" viewBox="0 0 507 113" fill="none" xmlns="http://www.w3.org/2000/svg">
<path d="M6.73322 51.7941H39.5312V54.2741H9.39922V75.4781H36.9272V77.9581H9.39922V100.774H6.73322V51.7941ZM51.7564 100.774H49.1524V50.3061H51.7564V100.774ZM80.0027 101.642C76.82 101.642 73.9474 100.836 71.3847 99.2241C68.822 97.6534 66.7967 95.4834 65.3087 92.7141C63.862 89.9034 63.1387 86.8034 63.1387 83.4141C63.1387 80.0247 63.862 76.9454 65.3087 74.1761C66.7967 71.3654 68.822 69.1747 71.3847 67.6041C73.9474 65.9921 76.82 65.1861 80.0027 65.1861C82.5654 65.1861 84.9007 65.6614 87.0087 66.6121C89.1167 67.5627 90.832 68.7407 92.1547 70.1461C93.5187 71.5514 94.4487 72.9567 94.9447 74.3621V66.0541H97.5487V100.774H94.9447V92.4661C94.4487 93.8714 93.5187 95.2767 92.1547 96.6821C90.832 98.0874 89.1167 99.2654 87.0087 100.216C84.9007 101.167 82.5654 101.642 80.0027 101.642ZM80.1887 99.2241C83.0407 99.2241 85.5827 98.5214 87.8147 97.1161C90.088 95.7521 91.8447 93.8714 93.0847 91.4741C94.366 89.0354 95.0067 86.3487 95.0067 83.4141C95.0067 80.4794 94.366 77.8134 93.0847 75.4161C91.8447 72.9774 90.088 71.0761 87.8147 69.7121C85.5827 68.3067 83.0407 67.6041 80.1887 67.6041C77.3367 67.6041 74.8154 68.3067 72.6247 69.7121C70.434 71.0761 68.7394 72.9567 67.5407 75.3541C66.342 77.7514 65.7427 80.4381 65.7427 83.4141C65.7427 86.3901 66.342 89.0767 67.5407 91.4741C68.7394 93.8714 70.434 95.7521 72.6247 97.1161C74.8154 98.5214 77.3367 99.2241 80.1887 99.2241ZM123.774 65.1861C126.502 65.1861 128.961 65.5994 131.152 66.4261C133.342 67.2114 135.078 68.3067 136.36 69.7121C137.641 71.0761 138.302 72.5847 138.344 74.2381H135.74C135.698 72.9981 135.12 71.8614 134.004 70.8281C132.929 69.7947 131.482 68.9887 129.664 68.4101C127.845 67.8314 125.82 67.5421 123.588 67.5421C121.438 67.5421 119.496 67.8314 117.76 68.4101C116.024 68.9887 114.66 69.7947 113.668 70.8281C112.676 71.8614 112.18 72.9981 112.18 74.2381C112.18 75.6434 112.51 76.8421 113.172 77.8341C113.874 78.8261 115.156 79.6734 117.016 80.3761C118.876 81.0787 121.521 81.6367 124.952 82.0501C130.077 82.6287 133.735 83.7241 135.926 85.3361C138.158 86.9481 139.274 89.0354 139.274 91.5981C139.274 93.6647 138.612 95.4421 137.29 96.9301C135.967 98.4594 134.148 99.6167 131.834 100.402C129.519 101.229 126.936 101.642 124.084 101.642C121.025 101.642 118.38 101.208 116.148 100.34C113.957 99.4721 112.242 98.3147 111.002 96.8681C109.803 95.4214 109.1 93.8301 108.894 92.0941H111.56C111.684 93.2927 112.221 94.4501 113.172 95.5661C114.122 96.6407 115.528 97.5294 117.388 98.2321C119.248 98.9347 121.542 99.2861 124.27 99.2861C126.626 99.2861 128.734 98.9554 130.594 98.2941C132.495 97.6741 133.983 96.7854 135.058 95.6281C136.132 94.4707 136.67 93.1687 136.67 91.7221C136.67 90.3581 136.277 89.2214 135.492 88.3121C134.706 87.3614 133.363 86.5554 131.462 85.8941C129.56 85.2327 126.894 84.6954 123.464 84.2821C118.421 83.6621 114.846 82.5461 112.738 80.9341C110.63 79.3221 109.576 77.1727 109.576 74.4861C109.576 72.6261 110.175 70.9934 111.374 69.5881C112.614 68.1827 114.308 67.1081 116.458 66.3641C118.607 65.5787 121.046 65.1861 123.774 65.1861ZM150.457 50.3061H153.061V74.6721C153.433 73.3907 154.239 72.0267 155.479 70.5801C156.719 69.0921 158.352 67.8314 160.377 66.7981C162.444 65.7234 164.8 65.1861 167.445 65.1861C170.09 65.1861 172.446 65.8061 174.513 67.0461C176.621 68.2861 178.254 70.0634 179.411 72.3781C180.568 74.6514 181.147 77.2761 181.147 80.2521V100.774H178.543V80.6861C178.543 76.5114 177.51 73.2874 175.443 71.0141C173.376 68.7407 170.524 67.6041 166.887 67.6041C164.407 67.6041 162.092 68.3481 159.943 69.8361C157.835 71.2827 156.161 73.1841 154.921 75.5401C153.681 77.8547 153.061 80.2314 153.061 82.6701V100.774H150.457V50.3061ZM252.903 51.7941V100.774H250.237V76.9661H215.641V100.774H212.975V51.7941H215.641V74.5481H250.237V51.7941H252.903ZM281.478 101.642C278.296 101.642 275.423 100.836 272.86 99.2241C270.298 97.6534 268.272 95.4834 266.784 92.7141C265.338 89.9034 264.614 86.8034 264.614 83.4141C264.614 80.0247 265.338 76.9454 266.784 74.1761C268.272 71.3654 270.298 69.1747 272.86 67.6041C275.423 65.9921 278.296 65.1861 281.478 65.1861C284.041 65.1861 286.376 65.6614 288.484 66.6121C290.592 67.5627 292.308 68.7407 293.63 70.1461C294.994 71.5514 295.924 72.9567 296.42 74.3621V66.0541H299.024V100.774H296.42V92.4661C295.924 93.8714 294.994 95.2767 293.63 96.6821C292.308 98.0874 290.592 99.2654 288.484 100.216C286.376 101.167 284.041 101.642 281.478 101.642ZM281.664 99.2241C284.516 99.2241 287.058 98.5214 289.29 97.1161C291.564 95.7521 293.32 93.8714 294.56 91.4741C295.842 89.0354 296.482 86.3487 296.482 83.4141C296.482 80.4794 295.842 77.8134 294.56 75.4161C293.32 72.9774 291.564 71.0761 289.29 69.7121C287.058 68.3067 284.516 67.6041 281.664 67.6041C278.812 67.6041 276.291 68.3067 274.1 69.7121C271.91 71.0761 270.215 72.9567 269.016 75.3541C267.818 77.7514 267.218 80.4381 267.218 83.4141C267.218 86.3901 267.818 89.0767 269.016 91.4741C270.215 93.8714 271.91 95.7521 274.1 97.1161C276.291 98.5214 278.812 99.2241 281.664 99.2241ZM312.292 66.0541H314.896V73.6801C315.681 71.6134 317.107 69.6914 319.174 67.9141C321.282 66.0954 324.03 65.1861 327.42 65.1861C330.313 65.1861 332.731 66.0747 334.674 67.8521C336.658 69.5881 337.96 71.9854 338.58 75.0441C339.53 72.0681 341.184 69.6914 343.54 67.9141C345.896 66.0954 348.665 65.1861 351.848 65.1861C354.038 65.1861 356.022 65.7647 357.8 66.9221C359.618 68.0381 361.044 69.6294 362.078 71.6961C363.111 73.7627 363.628 76.1187 363.628 78.7641V100.774H361.024V79.1981C361.024 75.6434 360.135 72.8327 358.358 70.7661C356.58 68.6581 354.224 67.6041 351.29 67.6041C349.099 67.6041 347.074 68.2861 345.214 69.6501C343.395 71.0141 341.948 72.8327 340.874 75.1061C339.799 77.3381 339.262 79.7147 339.262 82.2361V100.774H336.658V79.6321C336.658 75.9121 335.769 72.9774 333.992 70.8281C332.214 68.6787 329.858 67.6041 326.924 67.6041C324.774 67.6041 322.77 68.3067 320.91 69.7121C319.05 71.0761 317.582 72.8741 316.508 75.1061C315.433 77.3381 314.896 79.6734 314.896 82.1121V100.774H312.292V66.0541ZM375.909 66.0541H378.513V73.6801C379.299 71.6134 380.725 69.6914 382.791 67.9141C384.899 66.0954 387.648 65.1861 391.037 65.1861C393.931 65.1861 396.349 66.0747 398.291 67.8521C400.275 69.5881 401.577 71.9854 402.197 75.0441C403.148 72.0681 404.801 69.6914 407.157 67.9141C409.513 66.0954 412.283 65.1861 415.465 65.1861C417.656 65.1861 419.64 65.7647 421.417 66.9221C423.236 68.0381 424.662 69.6294 425.695 71.6961C426.729 73.7627 427.245 76.1187 427.245 78.7641V100.774H424.641V79.1981C424.641 75.6434 423.753 72.8327 421.975 70.7661C420.198 68.6581 417.842 67.6041 414.907 67.6041C412.717 67.6041 410.691 68.2861 408.831 69.6501C407.013 71.0141 405.566 72.8327 404.491 75.1061C403.417 77.3381 402.879 79.7147 402.879 82.2361V100.774H400.275V79.6321C400.275 75.9121 399.387 72.9774 397.609 70.8281C395.832 68.6787 393.476 67.6041 390.541 67.6041C388.392 67.6041 386.387 68.3067 384.527 69.7121C382.667 71.0761 381.2 72.8741 380.125 75.1061C379.051 77.3381 378.513 79.6734 378.513 82.1121V100.774H375.909V66.0541ZM454.531 101.642C451.348 101.642 448.476 100.836 445.913 99.2241C443.35 97.6534 441.325 95.4834 439.837 92.7141C438.39 89.9447 437.667 86.8447 437.667 83.4141C437.667 79.9834 438.39 76.8834 439.837 74.1141C441.325 71.3447 443.35 69.1747 445.913 67.6041C448.476 65.9921 451.348 65.1861 454.531 65.1861C457.714 65.1861 460.586 65.9921 463.149 67.6041C465.712 69.1747 467.716 71.3447 469.163 74.1141C470.651 76.8834 471.395 79.9834 471.395 83.4141C471.395 83.9927 471.374 84.3854 471.333 84.5921H440.333C440.498 87.3614 441.201 89.8621 442.441 92.0941C443.681 94.3261 445.334 96.0621 447.401 97.3021C449.509 98.5834 451.886 99.2241 454.531 99.2241C457.548 99.2241 460.173 98.5421 462.405 97.1781C464.678 95.8554 466.208 94.1401 466.993 92.0321H469.845C468.853 94.8427 466.972 97.1367 464.203 98.9141C461.475 100.733 458.251 101.642 454.531 101.642ZM468.729 82.1741C468.564 79.4047 467.861 76.9247 466.621 74.7341C465.381 72.5021 463.707 70.7661 461.599 69.5261C459.532 68.2447 457.176 67.6041 454.531 67.6041C451.886 67.6041 449.509 68.2447 447.401 69.5261C445.334 70.7661 443.681 72.5021 442.441 74.7341C441.201 76.9247 440.498 79.4047 440.333 82.1741H468.729ZM482.62 66.0541H485.224V74.6721C485.637 73.3907 486.484 72.0267 487.766 70.5801C489.047 69.0921 490.742 67.8314 492.85 66.7981C494.999 65.7234 497.417 65.1861 500.104 65.1861C502.129 65.1861 503.72 65.3927 504.878 65.8061V68.3481C503.679 67.8521 502.046 67.6041 499.98 67.6041C497.293 67.6041 494.813 68.3481 492.54 69.8361C490.266 71.2827 488.468 73.1841 487.146 75.5401C485.864 77.8547 485.224 80.2314 485.224 82.6701V100.774H482.62V66.0541Z" fill="black"/>
<path d="M227.187 41.5102C224.792 44.8961 220.825 47.0869 216.293 47.0389L208.374 46.955C205.256 46.922 202.27 45.6707 200.043 43.4556L198.772 42.1914L186.007 45.7983C185.158 46.0374 184.22 45.7793 183.61 45.1113C183 44.4433 182.803 43.5109 183.116 42.6769L185.763 35.6551C186.804 32.9268 188.409 30.4526 190.485 28.3865L192.346 26.5352C196.12 22.7814 201.22 20.6337 206.602 20.5252L215.6 20.3517C220.483 20.2587 224.865 22.7756 227.369 26.6165L230.664 26.6617L230.646 25.0076C230.625 23.0641 232.188 21.5094 234.132 21.5403L239.121 21.5931C241.075 21.6138 242.671 23.2019 242.682 25.135L242.878 43.3302C242.899 45.2738 241.337 46.8285 239.393 46.7976L234.404 46.7448C232.45 46.7241 230.853 45.136 230.843 43.2028L230.825 41.5487L227.187 41.5102ZM202.154 95.5868L205.73 51.3823C206.604 51.5363 207.509 51.6182 208.414 51.6381L216.334 51.722C217.581 51.7352 218.785 51.6239 219.957 51.3985L224.5 95.8234C224.837 99.1245 223.677 102.368 221.353 104.68C217.014 108.996 209.915 108.911 205.493 104.512C203.119 102.151 201.899 98.8713 202.154 95.5868Z" fill="#FF9500"/>
</svg>
